<svg xmlns="http://www.w3.org/2000/svg" viewBox="0 0 720 200" role="img" aria-label="데이터 — 값만 싣는 자리"><style>.s{stroke:#c8cfd6;stroke-width:1.4;fill:none}.t{stroke:#16938a;stroke-width:2.2;fill:none}.r{stroke:#d42a2a;stroke-width:2.2;fill:none}.f{fill:#11151a}.ft{fill:#16938a}.fr{fill:#d42a2a}.fg{fill:#c9a227}.cap{font:600 11px "Noto Sans KR",sans-serif;fill:#5b6672;letter-spacing:.06em}</style><rect width="720" height="200" fill="#fbfcfd"/><line class="s" x1="0" y1="0" x2="0" y2="200" opacity=".28"/><line class="s" x1="40" y1="0" x2="40" y2="200" opacity=".28"/><line class="s" x1="80" y1="0" x2="80" y2="200" opacity=".28"/><line class="s" x1="120" y1="0" x2="120" y2="200" opacity=".28"/><line class="s" x1="160" y1="0" x2="160" y2="200" opacity=".28"/><line class="s" x1="200" y1="0" x2="200" y2="200" opacity=".28"/><line class="s" x1="240" y1="0" x2="240" y2="200" opacity=".28"/><line class="s" x1="280" y1="0" x2="280" y2="200" opacity=".28"/><line class="s" x1="320" y1="0" x2="320" y2="200" opacity=".28"/><line class="s" x1="360" y1="0" x2="360" y2="200" opacity=".28"/><line class="s" x1="400" y1="0" x2="400" y2="200" opacity=".28"/><line class="s" x1="440" y1="0" x2="440" y2="200" opacity=".28"/><line class="s" x1="480" y1="0" x2="480" y2="200" opacity=".28"/><line class="s" x1="520" y1="0" x2="520" y2="200" opacity=".28"/><line class="s" x1="560" y1="0" x2="560" y2="200" opacity=".28"/><line class="s" x1="600" y1="0" x2="600" y2="200" opacity=".28"/><line class="s" x1="640" y1="0" x2="640" y2="200" opacity=".28"/><line class="s" x1="680" y1="0" x2="680" y2="200" opacity=".28"/><line class="s" x1="720" y1="0" x2="720" y2="200" opacity=".28"/><line class="s" x1="0" y1="0" x2="720" y2="0" opacity=".28"/><line class="s" x1="0" y1="40" x2="720" y2="40" opacity=".28"/><line class="s" x1="0" y1="80" x2="720" y2="80" opacity=".28"/><line class="s" x1="0" y1="120" x2="720" y2="120" opacity=".28"/><line class="s" x1="0" y1="160" x2="720" y2="160" opacity=".28"/><line class="s" x1="0" y1="200" x2="720" y2="200" opacity=".28"/><rect class="s" x="120" y="44" width="50" height="22" fill="#e6f2f1"/><rect class="s" x="178" y="44" width="50" height="22" fill="#fff"/><rect class="s" x="236" y="44" width="50" height="22" fill="#fff"/><rect class="s" x="294" y="44" width="50" height="22" fill="#e6f2f1"/><rect class="s" x="352" y="44" width="50" height="22" fill="#fff"/><rect class="s" x="410" y="44" width="50" height="22" fill="#fff"/><rect class="s" x="468" y="44" width="50" height="22" fill="#e6f2f1"/><rect class="s" x="526" y="44" width="50" height="22" fill="#fff"/><rect class="s" x="120" y="74" width="50" height="22" fill="#fff"/><rect class="s" x="178" y="74" width="50" height="22" fill="#fff"/><rect class="s" x="236" y="74" width="50" height="22" fill="#e6f2f1"/><rect class="s" x="294" y="74" width="50" height="22" fill="#fff"/><rect class="s" x="352" y="74" width="50" height="22" fill="#fff"/><rect class="s" x="410" y="74" width="50" height="22" fill="#e6f2f1"/><rect class="s" x="468" y="74" width="50" height="22" fill="#fff"/><rect class="s" x="526" y="74" width="50" height="22" fill="#fff"/><rect class="s" x="120" y="104" width="50" height="22" fill="#fff"/><rect class="s" x="178" y="104" width="50" height="22" fill="#e6f2f1"/><rect class="s" x="236" y="104" width="50" height="22" fill="#fff"/><rect class="s" x="294" y="104" width="50" height="22" fill="#fff"/><rect class="s" x="352" y="104" width="50" height="22" fill="#e6f2f1"/><rect class="s" x="410" y="104" width="50" height="22" fill="#fff"/><rect class="s" x="468" y="104" width="50" height="22" fill="#fff"/><rect class="s" x="526" y="104" width="50" height="22" fill="#e6f2f1"/><rect class="s" x="120" y="134" width="50" height="22" fill="#e6f2f1"/><rect class="s" x="178" y="134" width="50" height="22" fill="#fff"/><rect class="s" x="236" y="134" width="50" height="22" fill="#fff"/><rect class="s" x="294" y="134" width="50" height="22" fill="#e6f2f1"/><rect class="s" x="352" y="134" width="50" height="22" fill="#fff"/><rect class="s" x="410" y="134" width="50" height="22" fill="#fff"/><rect class="s" x="468" y="134" width="50" height="22" fill="#e6f2f1"/><rect class="s" x="526" y="134" width="50" height="22" fill="#fff"/><circle class="ft" cx="261" cy="55" r="3"/><circle class="ft" cx="435" cy="85" r="3"/><circle class="ft" cx="203" cy="115" r="3"/><circle class="ft" cx="493" cy="145" r="3"/><circle class="ft" cx="145" cy="85" r="3"/><circle class="ft" cx="551" cy="115" r="3"/><line class="t" x1="120" y1="176" x2="584" y2="176" stroke-width="2.6"/><text class="cap" x="16" y="188">값의 격자</text></svg>