<svg xmlns="http://www.w3.org/2000/svg" viewBox="0 0 720 200" role="img" aria-label="아시아경제 — 나라마다 다른 높이의 시장"><style>.s{stroke:#c8cfd6;stroke-width:1.4;fill:none}.t{stroke:#16938a;stroke-width:2.2;fill:none}.r{stroke:#d42a2a;stroke-width:2.2;fill:none}.f{fill:#11151a}.ft{fill:#16938a}.fr{fill:#d42a2a}.fg{fill:#c9a227}.cap{font:600 11px "Noto Sans KR",sans-serif;fill:#5b6672;letter-spacing:.06em}</style><rect width="720" height="200" fill="#fbfcfd"/><line class="s" x1="0" y1="0" x2="0" y2="200" opacity=".28"/><line class="s" x1="40" y1="0" x2="40" y2="200" opacity=".28"/><line class="s" x1="80" y1="0" x2="80" y2="200" opacity=".28"/><line class="s" x1="120" y1="0" x2="120" y2="200" opacity=".28"/><line class="s" x1="160" y1="0" x2="160" y2="200" opacity=".28"/><line class="s" x1="200" y1="0" x2="200" y2="200" opacity=".28"/><line class="s" x1="240" y1="0" x2="240" y2="200" opacity=".28"/><line class="s" x1="280" y1="0" x2="280" y2="200" opacity=".28"/><line class="s" x1="320" y1="0" x2="320" y2="200" opacity=".28"/><line class="s" x1="360" y1="0" x2="360" y2="200" opacity=".28"/><line class="s" x1="400" y1="0" x2="400" y2="200" opacity=".28"/><line class="s" x1="440" y1="0" x2="440" y2="200" opacity=".28"/><line class="s" x1="480" y1="0" x2="480" y2="200" opacity=".28"/><line class="s" x1="520" y1="0" x2="520" y2="200" opacity=".28"/><line class="s" x1="560" y1="0" x2="560" y2="200" opacity=".28"/><line class="s" x1="600" y1="0" x2="600" y2="200" opacity=".28"/><line class="s" x1="640" y1="0" x2="640" y2="200" opacity=".28"/><line class="s" x1="680" y1="0" x2="680" y2="200" opacity=".28"/><line class="s" x1="720" y1="0" x2="720" y2="200" opacity=".28"/><line class="s" x1="0" y1="0" x2="720" y2="0" opacity=".28"/><line class="s" x1="0" y1="40" x2="720" y2="40" opacity=".28"/><line class="s" x1="0" y1="80" x2="720" y2="80" opacity=".28"/><line class="s" x1="0" y1="120" x2="720" y2="120" opacity=".28"/><line class="s" x1="0" y1="160" x2="720" y2="160" opacity=".28"/><line class="s" x1="0" y1="200" x2="720" y2="200" opacity=".28"/><rect class="s" x="90" y="112" width="46" height="48" fill="#e6f2f1"/><rect class="s" x="168" y="68" width="46" height="92" fill="#fff"/><rect class="s" x="246" y="94" width="46" height="66" fill="#e6f2f1"/><rect class="s" x="324" y="48" width="46" height="112" fill="#fff"/><rect class="s" x="402" y="82" width="46" height="78" fill="#e6f2f1"/><rect class="s" x="480" y="124" width="46" height="36" fill="#fff"/><rect class="s" x="558" y="60" width="46" height="100" fill="#e6f2f1"/><polyline class="t" points="113,112 191,68 269,94 347,48 425,82 503,124 581,60"/><circle class="ft" cx="113" cy="112" r="4.5"/><circle class="ft" cx="191" cy="68" r="4.5"/><circle class="ft" cx="269" cy="94" r="4.5"/><circle class="ft" cx="347" cy="48" r="4.5"/><circle class="ft" cx="425" cy="82" r="4.5"/><circle class="ft" cx="503" cy="124" r="4.5"/><circle class="ft" cx="581" cy="60" r="4.5"/><line class="s" x1="60" y1="160" x2="660" y2="160"/><text class="cap" x="16" y="188">층이 다른 시장들</text></svg>